<svg xmlns="http://www.w3.org/2000/svg" width="600" height="300" viewBox="0 0 600 300">
  <rect width="100%" height="100%" fill="#111" />

  <!-- A2L Document Icon -->
  <rect x="50" y="50" width="60" height="80" rx="5" ry="5" fill="white" />
  <text x="80" y="95" font-family="sans-serif" font-size="24" fill="#111" text-anchor="middle" font-weight="bold">A2L</text>

  <!-- Gear Icon -->
  <circle cx="160" cy="90" r="30" fill="white" />
  <rect x="145" y="75" width="30" height="30" fill="#111" />
  <g fill="white">
    <rect x="150" y="80" width="5" height="5" />
    <rect x="160" y="80" width="5" height="5" />
    <rect x="170" y="80" width="5" height="5" />
    <rect x="150" y="90" width="5" height="5" />
    <rect x="160" y="90" width="5" height="5" />
    <rect x="170" y="90" width="5" height="5" />
    <rect x="150" y="100" width="5" height="5" />
    <rect x="160" y="100" width="5" height="5" />
    <rect x="170" y="100" width="5" height="5" />
  </g>

  <!-- Arrow -->
  <polygon points="210,85 240,90 210,95" fill="#2a9df4" />

  <!-- Database Icon -->
  <ellipse cx="290" cy="80" rx="30" ry="15" fill="white" />
  <rect x="260" y="80" width="60" height="40" fill="white" />
  <g fill="#2ecc71">
    <rect x="270" y="90" width="10" height="10" />
    <rect x="285" y="90" width="10" height="10" />
    <rect x="270" y="105" width="10" height="10" />
    <rect x="285" y="105" width="10" height="10" />
  </g>

  <!-- Text: pya2ldb -->
  <text x="50" y="180" font-family="sans-serif" font-size="48" fill="#ccc" font-weight="bold">py</text>
  <text x="130" y="180" font-family="sans-serif" font-size="48" fill="#2a9df4" font-weight="bold">2</text>
  <text x="160" y="180" font-family="sans-serif" font-size="48" fill="#ccc" font-weight="bold">ldb</text>

  <!-- Tagline -->
  <text x="50" y="220" font-family="sans-serif" font-size="18" fill="#ccc">ASAP2 PARSING AND QUERYING</text>
  <text x="50" y="245" font-family="sans-serif" font-size="18" fill="#ccc">FAST. FLEXIBLE. PYTHONIC.</text>
</svg>
